

<svg viewBox="0 0 800 400" xmlns="http://www.w3.org/2000/svg">

  <!-- Background -->

  <rect width="800" height="400" fill="#f8f9fa"/>


  <!-- Grid lines for reference -->


  <defs>

    <pattern id="grid" width="20" height="20" patternUnits="userSpaceOnUse">

      <path d="M 20 0 L 0 0 0 20" fill="none" stroke="#e9ecef" stroke-width="1"/>

    </pattern>

  </defs>

  <rect width="800" height="400" fill="url(#grid)"/>


  <!-- Main circular resonators -->


  <!-- Circle 1 (center) -->


  <circle cx="200" cy="200" r="40" fill="none" stroke="#2563eb" stroke-width="3"/>


  <!-- Circle 2 (60° rotation, 1.5x spacing) -->


  <circle cx="284" cy="149" r="40" fill="none" stroke="#2563eb" stroke-width="3"/>


  <!-- Circle 3 (120° rotation) -->


  <circle cx="316" cy="251" r="40" fill="none" stroke="#2563eb" stroke-width="3"/>


  <!-- Circle 4 (180° rotation) -->


  <circle cx="284" cy="353" r="40" fill="none" stroke="#2563eb" stroke-width="3"/>


  <!-- Circle 5 (240° rotation) -->


  <circle cx="200" cy="404" r="40" fill="none" stroke="#2563eb" stroke-width="3"/>


  <!-- Circle 6 (300° rotation) -->


  <circle cx="116" cy="353" r="40" fill="none" stroke="#2563eb" stroke-width="3"/>


  <!-- Circle 7 (360°/0° rotation) -->


  <circle cx="84" cy="251" r="40" fill="none" stroke="#2563eb" stroke-width="3"/>


  <!-- Circle 8 (continuing pattern) -->


  <circle cx="116" cy="149" r="40" fill="none" stroke="#2563eb" stroke-width="3"/>


  <!-- Connection lines showing the wave propagation -->


<path d="M 200 200 L 284 149 L 316 251 L 284 353 L 200 404 L 116 353 L 84 251 L 116 149 L 200 200"

fill="none" stroke="#dc2626" stroke-width="2" stroke-dasharray="5,5" opacity="0.7"/>


  <!-- Wave amplitude visualization -->


  <g opacity="0.6">

    <!-- Sine wave pattern connecting centers -->

    <path d="M 50 200 Q 125 150, 200 200 Q 275 250, 350 200 Q 425 150, 500 200"

          fill="none" stroke="#16a34a" stroke-width="2"/>


```

<!-- Wave nodes -->

<circle cx="200" cy="200" r="4" fill="#16a34a"/>

<circle cx="350" cy="200" r="4" fill="#16a34a"/>

<circle cx="500" cy="200" r="4" fill="#16a34a"/>

```


  </g>


  <!-- Interference zones -->


  <g opacity="0.3">

    <circle cx="200" cy="200" r="15" fill="#fbbf24"/>

    <circle cx="250" cy="200" r="12" fill="#fbbf24"/>

    <circle cx="300" cy="200" r="10" fill="#fbbf24"/>

  </g>


  <!-- Mathematical annotations -->


  <text x="50" y="30" font-family="Arial, sans-serif" font-size="16" font-weight="bold" fill="#1f2937">

    Circular Resonator Array Configuration

  </text>


  <text x="50" y="60" font-family="Arial, sans-serif" font-size="12" fill="#4b5563">

    • Phase offset: 60° between adjacent resonators

  </text>

  <text x="50" y="80" font-family="Arial, sans-serif" font-size="12" fill="#4b5563">

    • Spacing: 1.5 × radius (geometric progression)

  </text>

  <text x="50" y="100" font-family="Arial, sans-serif" font-size="12" fill="#4b5563">

    • Resonance: f₀ = c/λ = 1.5 MHz (λ = 200m)

  </text>


  <!-- Legend -->


  <g transform="translate(500, 50)">

    <rect x="0" y="0" width="250" height="120" fill="white" stroke="#d1d5db" stroke-width="1" rx="5"/>

    <text x="10" y="20" font-family="Arial, sans-serif" font-size="14" font-weight="bold" fill="#1f2937">Legend</text>


```

<circle cx="20" cy="40" r="8" fill="none" stroke="#2563eb" stroke-width="2"/>

<text x="35" y="45" font-family="Arial, sans-serif" font-size="11" fill="#4b5563">Circular Resonators</text>


<line x1="10" y1="60" x2="30" y2="60" stroke="#dc2626" stroke-width="2" stroke-dasharray="3,3"/>

<text x="35" y="65" font-family="Arial, sans-serif" font-size="11" fill="#4b5563">Connection Pattern</text>


<line x1="10" y1="80" x2="30" y2="80" stroke="#16a34a" stroke-width="2"/>

<text x="35" y="85" font-family="Arial, sans-serif" font-size="11" fill="#4b5563">Wave Propagation</text>


<circle cx="20" cy="100" r="6" fill="#fbbf24" opacity="0.5"/>

<text x="35" y="105" font-family="Arial, sans-serif" font-size="11" fill="#4b5563">Interference Zones</text>

```


  </g>


  <!-- Coordinate system -->


  <g transform="translate(600, 200)" opacity="0.7">

    <line x1="0" y1="0" x2="40" y2="0" stroke="#6b7280" stroke-width="1" marker-end="url(#arrowhead)"/>

    <line x1="0" y1="0" x2="0" y2="-40" stroke="#6b7280" stroke-width="1" marker-end="url(#arrowhead)"/>

    <text x="45" y="5" font-family="Arial, sans-serif" font-size="10" fill="#6b7280">x</text>

    <text x="5" y="-45" font-family="Arial, sans-serif" font-size="10" fill="#6b7280">y</text>

  </g>


  <!-- Arrow marker definition -->


  <defs>

    <marker id="arrowhead" markerWidth="10" markerHeight="7" refX="9" refY="3.5" orient="auto">

      <polygon points="0 0, 10 3.5, 0 7" fill="#6b7280"/>

    </marker>

  </defs>


  <!-- Field strength visualization -->


  <g transform="translate(50, 300)" opacity="0.8">

    <text x="0" y="0" font-family="Arial, sans-serif" font-size="12" font-weight="bold" fill="#1f2937">Field Enhancement Profile:</text>

    <path d="M 0 20 L 50 15 L 100 10 L 150 5 L 200 15 L 250 25 L 300 20"

          fill="none" stroke="#7c3aed" stroke-width="2"/>

    <text x="0" y="45" font-family="Arial, sans-serif" font-size="10" fill="#6b7280">0</text>

    <text x="150" y="45" font-family="Arial, sans-serif" font-size="10" fill="#6b7280">Distance →</text>

    <text x="310" y="25" font-family="Arial, sans-serif" font-size="10" fill="#6b7280">Amplitude</text>

  </g>

</svg>
